<svg width="25" height="25" viewBox="0 0 25 25" fill="none" xmlns="http://www.w3.org/2000/svg">
<g clip-path="url(#clip0_5_2)">
<path d="M0 12.5C0 19.4036 5.59644 25 12.5 25C19.4036 25 25 19.4036 25 12.5C25 5.59644 19.4036 0 12.5 0C5.59644 0 0 5.59644 0 12.5Z" fill="#242423"/>
<path d="M12.6053 12.897C13.2633 12.897 13.744 12.7383 14.0473 12.421C14.3553 12.1037 14.5093 11.6697 14.5093 11.119C14.5093 10.867 14.4697 10.6383 14.3903 10.433C14.3157 10.223 14.199 10.0457 14.0403 9.901C13.8863 9.75167 13.6903 9.63733 13.4523 9.558C13.2143 9.47867 12.932 9.439 12.6053 9.439H11.2753V12.897H12.6053ZM12.6053 7.843C13.3007 7.843 13.9003 7.92467 14.4043 8.088C14.913 8.25133 15.3307 8.48 15.6573 8.774C15.984 9.06333 16.2243 9.40867 16.3783 9.81C16.537 10.2113 16.6163 10.6477 16.6163 11.119C16.6163 11.6183 16.5347 12.0757 16.3713 12.491C16.208 12.9063 15.9607 13.2633 15.6293 13.562C15.298 13.8607 14.8803 14.094 14.3763 14.262C13.8723 14.4253 13.282 14.507 12.6053 14.507H11.2753V18H9.17533V7.843H12.6053Z" fill="#F5F5F5"/>
</g>
<defs>
<clipPath id="clip0_5_2">
<rect width="25" height="25" fill="white"/>
</clipPath>
</defs>
</svg>
